<svg width="153" height="27" viewBox="0 0 153 27" fill="none" xmlns="http://www.w3.org/2000/svg">
<path fill-rule="evenodd" clip-rule="evenodd" d="M82.662 7.3451C86.769 7.3451 88.822 9.8884 88.822 14.9751V24.3201C88.822 24.7868 88.659 25.1834 88.332 25.5101C88.029 25.8368 87.632 26.0001 87.142 26.0001C86.675 26.0001 86.279 25.8368 85.952 25.5101C85.649 25.1834 85.497 24.7868 85.497 24.3201V14.9751C85.497 11.9418 84.214 10.4251 81.647 10.4251C80.27 10.4251 79.127 10.8684 78.217 11.7551C77.307 12.6184 76.852 13.6918 76.852 14.9751V24.3201C76.852 24.7868 76.689 25.1834 76.362 25.5101C76.059 25.8368 75.662 26.0001 75.172 26.0001C74.682 26.0001 74.285 25.8484 73.982 25.5451C73.679 25.2184 73.527 24.8101 73.527 24.3201V1.7801C73.527 1.31343 73.679 0.916768 73.982 0.590098C74.309 0.263428 74.705 0.100098 75.172 0.100098C75.662 0.100098 76.059 0.263428 76.362 0.590098C76.689 0.916768 76.852 1.31343 76.852 1.7801V10.6351C77.435 9.7251 78.252 8.9551 79.302 8.3251C80.352 7.6718 81.472 7.3451 82.662 7.3451ZM4.33503 11.9651V4.7201H14.52C14.9867 4.7201 15.3833 4.56843 15.71 4.2651C16.0367 3.93843 16.2 3.5651 16.2 3.1451C16.2 2.6551 16.0367 2.25843 15.71 1.9551C15.4067 1.65177 15.01 1.5001 14.52 1.5001H2.58503C2.11833 1.5001 1.72173 1.66343 1.39503 1.9901C1.06833 2.31676 0.905029 2.71343 0.905029 3.1801V24.3201C0.905029 24.7868 1.06833 25.1834 1.39503 25.5101C1.72173 25.8368 2.13003 26.0001 2.62003 26.0001C3.08673 26.0001 3.48333 25.8368 3.81003 25.5101C4.16003 25.1834 4.33503 24.7868 4.33503 24.3201V15.1501H12.945C13.435 15.1501 13.8317 14.9984 14.135 14.6951C14.4617 14.3918 14.625 14.0301 14.625 13.6101C14.625 13.1201 14.4617 12.7234 14.135 12.4201C13.8317 12.1168 13.435 11.9651 12.945 11.9651H4.33503ZM30.6432 7.7301C30.1999 7.4034 29.6749 7.2401 29.0682 7.2401C27.7616 7.2634 26.5949 7.6368 25.5682 8.3601C24.5416 9.0601 23.7716 9.9818 23.2582 11.1251V9.3401C23.2582 8.8734 23.0949 8.4768 22.7682 8.1501C22.4649 7.8234 22.0682 7.6601 21.5782 7.6601C21.1116 7.6601 20.7149 7.8234 20.3882 8.1501C20.0849 8.4768 19.9332 8.8734 19.9332 9.3401V24.3201C19.9332 24.8101 20.0849 25.2184 20.3882 25.5451C20.6916 25.8484 21.0882 26.0001 21.5782 26.0001C22.0682 26.0001 22.4649 25.8368 22.7682 25.5101C23.0949 25.1834 23.2582 24.7868 23.2582 24.3201V15.8851C23.2582 14.8118 23.4682 13.8434 23.8882 12.9801C24.3316 12.0934 24.8916 11.4051 25.5682 10.9151C26.2682 10.4018 26.9799 10.1451 27.7032 10.1451C27.9832 10.1451 28.3682 10.2268 28.8582 10.3901C29.2782 10.5301 29.5932 10.6001 29.8032 10.6001C30.2232 10.6001 30.5732 10.4601 30.8532 10.1801C31.1566 9.8768 31.3082 9.4451 31.3082 8.8851C31.3082 8.4184 31.0866 8.0334 30.6432 7.7301ZM49.7051 16.1301C49.6818 16.5501 49.5068 16.9118 49.1801 17.2151C48.8535 17.4951 48.4685 17.6351 48.0251 17.6351H35.7051C35.8685 19.3384 36.5101 20.7034 37.6301 21.7301C38.7735 22.7568 40.1618 23.2701 41.7951 23.2701C42.9151 23.2701 43.8251 23.1068 44.5251 22.7801C45.2251 22.4534 45.8435 22.0334 46.3801 21.5201C46.7301 21.3101 47.0685 21.2051 47.3951 21.2051C47.7918 21.2051 48.1185 21.3451 48.3751 21.6251C48.6551 21.9051 48.7951 22.2318 48.7951 22.6051C48.7951 23.0951 48.5618 23.5384 48.0951 23.9351C47.4185 24.6118 46.5201 25.1834 45.4001 25.6501C44.2801 26.1168 43.1368 26.3501 41.9701 26.3501C40.0801 26.3501 38.4118 25.9534 36.9651 25.1601C35.5418 24.3668 34.4335 23.2584 33.6401 21.8351C32.8701 20.4118 32.4851 18.8018 32.4851 17.0051C32.4851 15.0451 32.8818 13.3301 33.6751 11.8601C34.4918 10.3668 35.5535 9.2234 36.8601 8.4301C38.1901 7.6368 39.6135 7.2401 41.1301 7.2401C42.6235 7.2401 44.0235 7.6251 45.3301 8.3951C46.6368 9.1651 47.6868 10.2268 48.4801 11.5801C49.2735 12.9334 49.6818 14.4501 49.7051 16.1301ZM37.7351 11.4401C38.6918 10.6934 39.8235 10.3201 41.1301 10.3201C42.3901 10.3201 43.5101 10.7168 44.4901 11.5101C45.4935 12.3034 46.0535 13.3184 46.1701 14.5551V14.8351H35.8451C36.1485 13.2951 36.7785 12.1634 37.7351 11.4401ZM69.666 16.1301C69.643 16.5501 69.468 16.9118 69.141 17.2151C68.814 17.4951 68.429 17.6351 67.986 17.6351H55.6661C55.8294 19.3384 56.4711 20.7034 57.591 21.7301C58.734 22.7568 60.123 23.2701 61.756 23.2701C62.876 23.2701 63.786 23.1068 64.486 22.7801C65.186 22.4534 65.804 22.0334 66.341 21.5201C66.691 21.3101 67.029 21.2051 67.356 21.2051C67.753 21.2051 68.079 21.3451 68.336 21.6251C68.616 21.9051 68.756 22.2318 68.756 22.6051C68.756 23.0951 68.523 23.5384 68.056 23.9351C67.379 24.6118 66.481 25.1834 65.361 25.6501C64.241 26.1168 63.098 26.3501 61.931 26.3501C60.041 26.3501 58.373 25.9534 56.9261 25.1601C55.5027 24.3668 54.3944 23.2584 53.6011 21.8351C52.8311 20.4118 52.4461 18.8018 52.4461 17.0051C52.4461 15.0451 52.8427 13.3301 53.6361 11.8601C54.4527 10.3668 55.5144 9.2234 56.8211 8.4301C58.151 7.6368 59.574 7.2401 61.091 7.2401C62.584 7.2401 63.984 7.6251 65.291 8.3951C66.598 9.1651 67.648 10.2268 68.441 11.5801C69.234 12.9334 69.643 14.4501 69.666 16.1301ZM57.696 11.4401C58.653 10.6934 59.784 10.3201 61.091 10.3201C62.351 10.3201 63.471 10.7168 64.451 11.5101C65.454 12.3034 66.014 13.3184 66.131 14.5551V14.8351H55.8061C56.1094 13.2951 56.7394 12.1634 57.696 11.4401ZM109.861 7.9051C109.557 7.5784 109.161 7.4151 108.671 7.4151C108.181 7.4151 107.784 7.5784 107.481 7.9051C107.177 8.2318 107.026 8.6401 107.026 9.1301V9.9701C106.396 9.1768 105.544 8.5234 104.471 8.0101C103.421 7.4968 102.277 7.2401 101.041 7.2401C99.501 7.2401 98.089 7.6484 96.806 8.4651C95.522 9.2818 94.507 10.4251 93.761 11.8951C93.037 13.3418 92.676 14.9751 92.676 16.7951C92.676 18.6151 93.037 20.2601 93.761 21.7301C94.507 23.1768 95.522 24.3084 96.806 25.1251C98.112 25.9418 99.559 26.3501 101.146 26.3501C102.359 26.3501 103.491 26.0701 104.541 25.5101C105.591 24.9268 106.419 24.2268 107.026 23.4101V24.3201C107.026 24.8101 107.177 25.2184 107.481 25.5451C107.784 25.8484 108.181 26.0001 108.671 26.0001C109.161 26.0001 109.557 25.8368 109.861 25.5101C110.187 25.1834 110.351 24.7868 110.351 24.3201V9.1301C110.351 8.6168 110.187 8.2084 109.861 7.9051ZM101.531 23.2701C102.627 23.2701 103.596 22.9901 104.436 22.4301C105.299 21.8701 105.964 21.1001 106.431 20.1201C106.921 19.1401 107.166 18.0318 107.166 16.7951C107.166 15.5818 106.921 14.4851 106.431 13.5051C105.964 12.5251 105.299 11.7551 104.436 11.1951C103.596 10.6118 102.627 10.3201 101.531 10.3201C100.434 10.3201 99.454 10.6001 98.591 11.1601C97.751 11.7201 97.086 12.4901 96.596 13.4701C96.129 14.4501 95.896 15.5584 95.896 16.7951C95.896 18.0318 96.129 19.1401 96.596 20.1201C97.086 21.1001 97.751 21.8701 98.591 22.4301C99.454 22.9901 100.434 23.2701 101.531 23.2701ZM130.94 24.3201V14.8001C130.94 9.7601 128.84 7.2401 124.64 7.2401C123.403 7.2401 122.236 7.5668 121.14 8.2201C120.066 8.8501 119.226 9.6318 118.62 10.5651V9.3401C118.62 8.8734 118.456 8.4768 118.13 8.1501C117.826 7.8234 117.43 7.6601 116.94 7.6601C116.473 7.6601 116.076 7.8234 115.75 8.1501C115.446 8.4768 115.295 8.8734 115.295 9.3401V24.3201C115.295 24.8101 115.446 25.2184 115.75 25.5451C116.053 25.8484 116.45 26.0001 116.94 26.0001C117.43 26.0001 117.826 25.8368 118.13 25.5101C118.456 25.1834 118.62 24.7868 118.62 24.3201V14.8351C118.62 14.0184 118.83 13.2718 119.25 12.5951C119.693 11.8951 120.288 11.3468 121.035 10.9501C121.805 10.5301 122.656 10.3201 123.59 10.3201C125.013 10.3201 126.04 10.7284 126.67 11.5451C127.3 12.3618 127.615 13.4584 127.615 14.8351V24.3201C127.615 24.7868 127.766 25.1834 128.07 25.5101C128.396 25.8368 128.793 26.0001 129.26 26.0001C129.75 26.0001 130.146 25.8368 130.45 25.5101C130.776 25.1834 130.94 24.7868 130.94 24.3201ZM150.78 0.100098C151.27 0.100098 151.667 0.263428 151.97 0.590098C152.297 0.893428 152.46 1.2901 152.46 1.7801V24.3201C152.46 24.7868 152.297 25.1834 151.97 25.5101C151.667 25.8368 151.27 26.0001 150.78 26.0001C150.29 26.0001 149.893 25.8484 149.59 25.5451C149.287 25.2184 149.135 24.8101 149.135 24.3201V23.3401C148.552 24.1801 147.723 24.8918 146.65 25.4751C145.6 26.0584 144.468 26.3501 143.255 26.3501C141.668 26.3501 140.233 25.9418 138.95 25.1251C137.667 24.3084 136.652 23.1768 135.905 21.7301C135.158 20.2601 134.785 18.6151 134.785 16.7951C134.785 14.9751 135.147 13.3418 135.87 11.8951C136.617 10.4251 137.632 9.2818 138.915 8.4651C140.198 7.6484 141.61 7.2401 143.15 7.2401C144.387 7.2401 145.53 7.4968 146.58 8.0101C147.63 8.5234 148.482 9.1884 149.135 10.0051V1.7801C149.135 1.2901 149.287 0.893428 149.59 0.590098C149.893 0.263428 150.29 0.100098 150.78 0.100098ZM146.545 22.4301C145.705 22.9901 144.737 23.2701 143.64 23.2701C142.543 23.2701 141.563 22.9901 140.7 22.4301C139.86 21.8701 139.195 21.1001 138.705 20.1201C138.238 19.1401 138.005 18.0318 138.005 16.7951C138.005 15.5818 138.238 14.4851 138.705 13.5051C139.195 12.5018 139.86 11.7201 140.7 11.1601C141.563 10.6001 142.543 10.3201 143.64 10.3201C144.737 10.3201 145.705 10.6001 146.545 11.1601C147.408 11.7201 148.073 12.5018 148.54 13.5051C149.03 14.4851 149.275 15.5818 149.275 16.7951C149.275 18.0318 149.03 19.1401 148.54 20.1201C148.073 21.1001 147.408 21.8701 146.545 22.4301Z" fill="white"/>
</svg>
