<svg width="153" height="27" viewBox="0 0 153 27" fill="none" xmlns="http://www.w3.org/2000/svg">
<path fill-rule="evenodd" clip-rule="evenodd" d="M82.662 7.34498C86.769 7.34498 88.822 9.88828 88.822 14.975V24.32C88.822 24.7867 88.659 25.1833 88.332 25.51C88.029 25.8367 87.632 26 87.142 26C86.675 26 86.279 25.8367 85.952 25.51C85.649 25.1833 85.497 24.7867 85.497 24.32V14.975C85.497 11.9417 84.214 10.425 81.647 10.425C80.27 10.425 79.127 10.8683 78.217 11.755C77.307 12.6183 76.852 13.6917 76.852 14.975V24.32C76.852 24.7867 76.689 25.1833 76.362 25.51C76.059 25.8367 75.662 26 75.172 26C74.682 26 74.285 25.8483 73.982 25.545C73.679 25.2183 73.527 24.81 73.527 24.32V1.77998C73.527 1.31331 73.679 0.916646 73.982 0.589976C74.309 0.263306 74.705 0.0999756 75.172 0.0999756C75.662 0.0999756 76.059 0.263306 76.362 0.589976C76.689 0.916646 76.852 1.31331 76.852 1.77998V10.635C77.435 9.72498 78.252 8.95498 79.302 8.32498C80.352 7.67168 81.472 7.34498 82.662 7.34498ZM4.33503 11.965V4.71998H14.52C14.9867 4.71998 15.3833 4.56831 15.71 4.26498C16.0367 3.93831 16.2 3.56498 16.2 3.14498C16.2 2.65498 16.0367 2.25831 15.71 1.95498C15.4067 1.65165 15.01 1.49998 14.52 1.49998H2.58503C2.11833 1.49998 1.72173 1.66331 1.39503 1.98998C1.06833 2.31664 0.905029 2.71331 0.905029 3.17998V24.32C0.905029 24.7867 1.06833 25.1833 1.39503 25.51C1.72173 25.8367 2.13003 26 2.62003 26C3.08673 26 3.48333 25.8367 3.81003 25.51C4.16003 25.1833 4.33503 24.7867 4.33503 24.32V15.15H12.945C13.435 15.15 13.8317 14.9983 14.135 14.695C14.4617 14.3917 14.625 14.03 14.625 13.61C14.625 13.12 14.4617 12.7233 14.135 12.42C13.8317 12.1167 13.435 11.965 12.945 11.965H4.33503ZM30.6432 7.72998C30.1999 7.40328 29.6749 7.23998 29.0682 7.23998C27.7616 7.26328 26.5949 7.63668 25.5682 8.35998C24.5416 9.05998 23.7716 9.98168 23.2582 11.125V9.33998C23.2582 8.87328 23.0949 8.47668 22.7682 8.14998C22.4649 7.82328 22.0682 7.65998 21.5782 7.65998C21.1116 7.65998 20.7149 7.82328 20.3882 8.14998C20.0849 8.47668 19.9332 8.87328 19.9332 9.33998V24.32C19.9332 24.81 20.0849 25.2183 20.3882 25.545C20.6916 25.8483 21.0882 26 21.5782 26C22.0682 26 22.4649 25.8367 22.7682 25.51C23.0949 25.1833 23.2582 24.7867 23.2582 24.32V15.885C23.2582 14.8117 23.4682 13.8433 23.8882 12.98C24.3316 12.0933 24.8916 11.405 25.5682 10.915C26.2682 10.4017 26.9799 10.145 27.7032 10.145C27.9832 10.145 28.3682 10.2267 28.8582 10.39C29.2782 10.53 29.5932 10.6 29.8032 10.6C30.2232 10.6 30.5732 10.46 30.8532 10.18C31.1566 9.87668 31.3082 9.44498 31.3082 8.88498C31.3082 8.41828 31.0866 8.03328 30.6432 7.72998ZM49.7051 16.13C49.6818 16.55 49.5068 16.9117 49.1801 17.215C48.8535 17.495 48.4685 17.635 48.0251 17.635H35.7051C35.8685 19.3383 36.5101 20.7033 37.6301 21.73C38.7735 22.7567 40.1618 23.27 41.7951 23.27C42.9151 23.27 43.8251 23.1067 44.5251 22.78C45.2251 22.4533 45.8435 22.0333 46.3801 21.52C46.7301 21.31 47.0685 21.205 47.3951 21.205C47.7918 21.205 48.1185 21.345 48.3751 21.625C48.6551 21.905 48.7951 22.2317 48.7951 22.605C48.7951 23.095 48.5618 23.5383 48.0951 23.935C47.4185 24.6117 46.5201 25.1833 45.4001 25.65C44.2801 26.1167 43.1368 26.35 41.9701 26.35C40.0801 26.35 38.4118 25.9533 36.9651 25.16C35.5418 24.3667 34.4335 23.2583 33.6401 21.835C32.8701 20.4117 32.4851 18.8017 32.4851 17.005C32.4851 15.045 32.8818 13.33 33.6751 11.86C34.4918 10.3667 35.5535 9.22328 36.8601 8.42998C38.1901 7.63668 39.6135 7.23998 41.1301 7.23998C42.6235 7.23998 44.0235 7.62498 45.3301 8.39498C46.6368 9.16498 47.6868 10.2267 48.4801 11.58C49.2735 12.9333 49.6818 14.45 49.7051 16.13ZM37.7351 11.44C38.6918 10.6933 39.8235 10.32 41.1301 10.32C42.3901 10.32 43.5101 10.7167 44.4901 11.51C45.4935 12.3033 46.0535 13.3183 46.1701 14.555V14.835H35.8451C36.1485 13.295 36.7785 12.1633 37.7351 11.44ZM69.666 16.13C69.643 16.55 69.468 16.9117 69.141 17.215C68.814 17.495 68.429 17.635 67.986 17.635H55.6661C55.8294 19.3383 56.4711 20.7033 57.591 21.73C58.734 22.7567 60.123 23.27 61.756 23.27C62.876 23.27 63.786 23.1067 64.486 22.78C65.186 22.4533 65.804 22.0333 66.341 21.52C66.691 21.31 67.029 21.205 67.356 21.205C67.753 21.205 68.079 21.345 68.336 21.625C68.616 21.905 68.756 22.2317 68.756 22.605C68.756 23.095 68.523 23.5383 68.056 23.935C67.379 24.6117 66.481 25.1833 65.361 25.65C64.241 26.1167 63.098 26.35 61.931 26.35C60.041 26.35 58.373 25.9533 56.9261 25.16C55.5027 24.3667 54.3944 23.2583 53.6011 21.835C52.8311 20.4117 52.4461 18.8017 52.4461 17.005C52.4461 15.045 52.8427 13.33 53.6361 11.86C54.4527 10.3667 55.5144 9.22328 56.8211 8.42998C58.151 7.63668 59.574 7.23998 61.091 7.23998C62.584 7.23998 63.984 7.62498 65.291 8.39498C66.598 9.16498 67.648 10.2267 68.441 11.58C69.234 12.9333 69.643 14.45 69.666 16.13ZM57.696 11.44C58.653 10.6933 59.784 10.32 61.091 10.32C62.351 10.32 63.471 10.7167 64.451 11.51C65.454 12.3033 66.014 13.3183 66.131 14.555V14.835H55.8061C56.1094 13.295 56.7394 12.1633 57.696 11.44ZM109.861 7.90498C109.557 7.57828 109.161 7.41498 108.671 7.41498C108.181 7.41498 107.784 7.57828 107.481 7.90498C107.177 8.23168 107.026 8.63998 107.026 9.12998V9.96998C106.396 9.17668 105.544 8.52328 104.471 8.00998C103.421 7.49668 102.277 7.23998 101.041 7.23998C99.501 7.23998 98.089 7.64828 96.806 8.46498C95.522 9.28168 94.507 10.425 93.761 11.895C93.037 13.3417 92.676 14.975 92.676 16.795C92.676 18.615 93.037 20.26 93.761 21.73C94.507 23.1767 95.522 24.3083 96.806 25.125C98.112 25.9417 99.559 26.35 101.146 26.35C102.359 26.35 103.491 26.07 104.541 25.51C105.591 24.9267 106.419 24.2267 107.026 23.41V24.32C107.026 24.81 107.177 25.2183 107.481 25.545C107.784 25.8483 108.181 26 108.671 26C109.161 26 109.557 25.8367 109.861 25.51C110.187 25.1833 110.351 24.7867 110.351 24.32V9.12998C110.351 8.61668 110.187 8.20828 109.861 7.90498ZM101.531 23.27C102.627 23.27 103.596 22.99 104.436 22.43C105.299 21.87 105.964 21.1 106.431 20.12C106.921 19.14 107.166 18.0317 107.166 16.795C107.166 15.5817 106.921 14.485 106.431 13.505C105.964 12.525 105.299 11.755 104.436 11.195C103.596 10.6117 102.627 10.32 101.531 10.32C100.434 10.32 99.454 10.6 98.591 11.16C97.751 11.72 97.086 12.49 96.596 13.47C96.129 14.45 95.896 15.5583 95.896 16.795C95.896 18.0317 96.129 19.14 96.596 20.12C97.086 21.1 97.751 21.87 98.591 22.43C99.454 22.99 100.434 23.27 101.531 23.27ZM130.94 24.32V14.8C130.94 9.75998 128.84 7.23998 124.64 7.23998C123.403 7.23998 122.236 7.56668 121.14 8.21998C120.066 8.84998 119.226 9.63168 118.62 10.565V9.33998C118.62 8.87328 118.456 8.47668 118.13 8.14998C117.826 7.82328 117.43 7.65998 116.94 7.65998C116.473 7.65998 116.076 7.82328 115.75 8.14998C115.446 8.47668 115.295 8.87328 115.295 9.33998V24.32C115.295 24.81 115.446 25.2183 115.75 25.545C116.053 25.8483 116.45 26 116.94 26C117.43 26 117.826 25.8367 118.13 25.51C118.456 25.1833 118.62 24.7867 118.62 24.32V14.835C118.62 14.0183 118.83 13.2717 119.25 12.595C119.693 11.895 120.288 11.3467 121.035 10.95C121.805 10.53 122.656 10.32 123.59 10.32C125.013 10.32 126.04 10.7283 126.67 11.545C127.3 12.3617 127.615 13.4583 127.615 14.835V24.32C127.615 24.7867 127.766 25.1833 128.07 25.51C128.396 25.8367 128.793 26 129.26 26C129.75 26 130.146 25.8367 130.45 25.51C130.776 25.1833 130.94 24.7867 130.94 24.32ZM150.78 0.0999756C151.27 0.0999756 151.667 0.263306 151.97 0.589976C152.297 0.893306 152.46 1.28998 152.46 1.77998V24.32C152.46 24.7867 152.297 25.1833 151.97 25.51C151.667 25.8367 151.27 26 150.78 26C150.29 26 149.893 25.8483 149.59 25.545C149.287 25.2183 149.135 24.81 149.135 24.32V23.34C148.552 24.18 147.723 24.8917 146.65 25.475C145.6 26.0583 144.468 26.35 143.255 26.35C141.668 26.35 140.233 25.9417 138.95 25.125C137.667 24.3083 136.652 23.1767 135.905 21.73C135.158 20.26 134.785 18.615 134.785 16.795C134.785 14.975 135.147 13.3417 135.87 11.895C136.617 10.425 137.632 9.28168 138.915 8.46498C140.198 7.64828 141.61 7.23998 143.15 7.23998C144.387 7.23998 145.53 7.49668 146.58 8.00998C147.63 8.52328 148.482 9.18828 149.135 10.005V1.77998C149.135 1.28998 149.287 0.893306 149.59 0.589976C149.893 0.263306 150.29 0.0999756 150.78 0.0999756ZM146.545 22.43C145.705 22.99 144.737 23.27 143.64 23.27C142.543 23.27 141.563 22.99 140.7 22.43C139.86 21.87 139.195 21.1 138.705 20.12C138.238 19.14 138.005 18.0317 138.005 16.795C138.005 15.5817 138.238 14.485 138.705 13.505C139.195 12.5017 139.86 11.72 140.7 11.16C141.563 10.6 142.543 10.32 143.64 10.32C144.737 10.32 145.705 10.6 146.545 11.16C147.408 11.72 148.073 12.5017 148.54 13.505C149.03 14.485 149.275 15.5817 149.275 16.795C149.275 18.0317 149.03 19.14 148.54 20.12C148.073 21.1 147.408 21.87 146.545 22.43Z" fill="#16133D"/>
</svg>
